<svg width="705" height="705" viewBox="0 0 705 705" fill="none" xmlns="http://www.w3.org/2000/svg">
<circle cx="352.5" cy="352.5" r="352.5" fill="#262423"/>
<path d="M585.322 352.311C585.246 383.077 579.095 413.526 567.221 441.907C555.345 470.288 537.982 496.04 516.13 517.683C494.275 539.328 468.361 556.435 439.877 568.027C411.393 579.617 380.903 585.459 350.155 585.218C222.46 584.751 118.299 479.216 118.677 350.687C119.055 222.159 224.193 118.024 353.444 118.58C415.165 118.82 474.263 143.579 517.745 187.41C561.227 231.238 585.535 290.553 585.322 352.311ZM126.033 351.221C125.744 475.502 226.838 577.391 350.999 578.036C475.161 578.681 577.433 477.526 577.855 353.445C578.277 227.763 477.85 126.03 353.177 125.83C227.949 125.563 126.299 226.429 126.033 351.221Z" fill="white"/>
<path d="M290.861 60.4322C301.708 67.1826 306.61 63.8512 306.255 52.1037C315.506 54.668 322.094 58.0871 319.853 68.7388C319.432 70.6675 320.563 72.9468 321.074 75.0508C322.161 79.4342 325.31 81.2095 329.281 79.9384C333.252 78.6672 332.764 75.007 331.499 71.7414C330.945 70.4044 330.634 68.6511 329.592 67.8621C320.719 61.1116 321.406 53.2434 327.373 44.5205C335.137 48.9039 342.191 53.879 337.112 65.2978C336.499 67.7919 336.661 70.4132 337.577 72.8153C338.642 76.6289 341.149 79.5439 345.585 78.4261C349.445 77.4837 350.288 74.1742 349.689 70.6017C349.62 68.4188 349.108 66.2731 348.181 64.2896C342.347 55.5228 345.829 48.6628 352.462 42C359.25 48.3779 364.64 54.6023 357.453 64.18C355.922 66.2402 356.1 69.8127 356.122 72.6838C356.144 75.555 357.52 78.5357 361.224 78.6014C362.715 78.757 364.208 78.334 365.388 77.4223C366.568 76.5105 367.342 75.1802 367.546 73.7139C368.101 70.514 369.166 66.8758 368.167 64.0704C364.441 53.5941 370.652 48.7285 378.438 44.3451C383.939 52.7393 385.093 60.1254 376.685 67.5114C374.201 69.7031 371.206 73.9331 374.001 78.2946C374.629 79.202 375.563 79.8594 376.634 80.1488C377.708 80.4381 378.85 80.3394 379.858 79.8726C384.693 78.3165 385.115 74.2838 385.492 70.2291C385.625 69.1596 385.625 68.0769 385.492 67.0073C384.161 58.6131 389.574 53.616 396.273 53.3749C402.972 53.1338 399.6 61.002 401.375 65.1882C402.75 66.6347 403.726 64.9033 404.902 64.5965C408.407 63.6759 413.043 59.0514 415.172 63.1061C417.834 68.2127 417.102 75.2262 410.492 78.0754C405.787 79.8901 401.636 82.8796 398.449 86.7523C395.261 90.6251 393.145 95.2452 392.302 100.168C391.526 103.937 389.818 106.743 385.226 107.247C364.086 109.592 342.746 109.592 321.606 107.247C319.632 107.05 316.814 107.707 316.349 104.595C314.352 91.4448 305.812 83.73 294.632 77.6809C288.088 74.1961 289.663 67.884 290.861 60.4322ZM303.106 64.9471C304.414 71.5222 304.769 76.2125 306.389 80.5082C306.633 81.3038 307.059 82.0314 307.633 82.6385C308.208 83.2456 308.917 83.7125 309.705 84.004C310.49 84.2976 311.335 84.4072 312.172 84.3239C313.01 84.2428 313.815 83.9711 314.53 83.5328C318.478 81.3411 317.436 77.7686 315.084 75.27C311.278 71.623 307.278 68.1777 303.106 64.9471ZM400.709 67.5333C394.432 71.1935 388.309 73.6043 388.975 81.078C389.241 83.9272 392.502 84.6724 395.119 83.6423C402.218 80.837 400.687 74.6564 400.643 67.5333H400.709ZM340.816 86.5135C336.757 86.4039 332.121 84.6944 329.88 88.7052C329.592 89.3802 329.454 90.1079 329.476 90.8399C329.499 91.5741 329.68 92.293 330.009 92.9483C330.337 93.6058 330.805 94.1866 331.38 94.649C331.954 95.1115 332.624 95.4468 333.341 95.6309C333.074 90.3489 333.607 85.7464 340.794 86.5135H340.816ZM324.933 90.1298C324.578 89.5818 324.312 88.7928 323.891 88.6832C323.574 88.6306 323.25 88.6547 322.944 88.7534C322.637 88.852 322.362 89.023 322.138 89.2531C321.65 90.3489 322.294 91.1599 323.469 91.1599C323.913 91.1599 324.423 90.5024 324.911 90.1298H324.933Z" fill="white"/>
<path d="M105.458 418.55C102.516 419.954 102.127 423.142 100.829 425.66C96.9789 433.15 91.0307 433.818 83.525 429.004C72.0178 421.693 69.2492 410.659 68.795 398.021C72.9047 397.219 74.5053 403.081 80.021 400.25C70.1793 389.105 62.0032 377.314 65.7668 361.109C70.374 360.285 70.6119 367.796 75.1975 367.663H75.0893C81.5784 379.521 84.0442 379.833 91.1388 369.713C93.4533 366.414 95.7028 363.026 98.0821 359.839C98.4281 359.371 99.2717 359.304 99.899 359.081C105.177 375.754 99.5313 389.083 87.5266 400.807C84.4119 398.578 87.5266 393.987 84.9959 391.513C80.4536 400.585 79.3288 409.077 89.5382 414.582L102.322 387.255C104.679 399.403 108.811 408.676 105.436 418.795L105.458 418.55Z" fill="white"/>
<path d="M147.153 175.795C144.448 175.643 142.607 175.449 142.607 171.685C143.221 155.074 147.29 148.282 163.972 137.792C166.245 142.248 161.222 146.682 164.904 152.349C170.086 145.125 170.041 136.516 174.223 130.006C178.405 123.495 186.565 120.229 194.065 116.185C194.452 124.101 188.497 130.114 189.633 137.468L189.815 137.273C185.61 140.885 188.292 141.75 191.974 142.075C199.02 142.745 206.111 143.329 213.203 143.935C203.77 156.48 185.928 162.817 172.496 155.334C159.54 148.131 162.313 157.497 160.449 162.99L160.677 162.796C160.022 162.811 159.397 163.068 158.936 163.512C158.474 163.955 158.211 164.55 158.199 165.175L158.427 164.98C158.09 164.946 157.749 164.985 157.429 165.093C157.111 165.199 156.82 165.374 156.579 165.601C156.34 165.83 156.156 166.105 156.045 166.41C155.931 166.715 155.89 167.039 155.926 167.359L156.154 167.143C153.472 167.619 151.608 168.787 151.403 171.685L151.631 171.469C149.903 171.469 148.926 172.075 149.131 173.848L149.358 173.632C147.562 173.481 146.562 174.129 146.88 176.011L147.153 175.795Z" fill="white"/>
<path d="M575.752 233.758L599.724 245.248L605.433 220.283C616.983 231.994 619.795 248.71 612.167 260.972C609.988 264.501 606.61 265.383 601.968 263.795C588.392 259.054 579.13 250.563 575.752 233.758Z" fill="white"/>
<path d="M149.785 553.301C158.071 553.301 169.282 556.714 173.861 552.47C179.198 547.535 171.806 536.487 172.454 527.792C187.261 534.55 195.413 548.549 193.872 564.487C193.695 566.306 192.896 568.002 191.62 569.27C190.343 570.536 188.67 571.295 186.903 571.406C171.136 574.058 160.505 568.823 149.785 553.301ZM178.997 556.345L177.769 554.846L177.412 556.253L179.176 556.091L179.064 557.913L180.516 557.567L178.997 556.345Z" fill="white"/>
<path d="M597.666 417.711C600.085 424.475 602.777 431.036 604.647 437.801C606.107 442.941 608.297 443.505 612.541 440.754C618.176 437.102 623.947 433.72 630.791 429.616C629.445 447.135 620.024 457.304 605.514 463.437C600.267 465.692 597.028 463.865 594.45 458.161C588.108 444.204 588.336 430.991 597.666 417.711ZM607.088 445.895L606.495 444.114C606.107 444.475 605.446 444.813 605.377 445.219C605.425 445.843 605.603 446.45 605.902 447L607.088 445.895Z" fill="white"/>
<path d="M629.184 331.389C626.259 326.306 620.409 329.73 616.747 327.555C604.421 320.21 597.03 310.044 598.727 293.739L619.382 309.915L632.221 286.093C637.58 299.361 639.41 310.991 630.993 322.515C629.34 324.776 625.12 327.684 629.028 331.561L629.184 331.389Z" fill="white"/>
<path d="M565.723 161.653C578.679 171.008 582.681 182.619 581.553 196.839C580.934 204.623 578.192 206.702 570.498 205.685C556.481 203.916 545.913 198.033 539.855 184.145C541.735 184.145 543.128 184.145 544.498 184.145C551.33 184.697 560.107 190.447 564.065 186.356C567.602 182.707 565.06 173.087 565.237 166.253C565.259 165.015 565.502 163.688 565.723 161.653Z" fill="white"/>
<path d="M99.2409 326.276C107.141 340.606 97.2268 366.475 74.5121 367.457H74.624C78.3165 362.789 73.1246 360.651 71.3119 358.034C62.5841 345.34 61.9351 342.591 66.1871 325.578C76.9738 336.353 84.6498 347.913 82.009 358.296C78.5851 346.954 91.1173 337.378 99.3528 325.949L99.2409 326.276Z" fill="white"/>
<path d="M483.024 566.081C479.166 574.925 475.712 582.973 472.258 590.999L499.173 595.819C483.943 608.356 481.678 608.754 455.818 603.823C454.965 599.136 461.021 600.308 461.671 596.969C458.554 594.581 455.952 598.141 453.081 598.362C452.79 597.367 452.386 596.726 452.543 596.284C457.5 581.89 464.744 569.508 483.024 566.081ZM470.172 592.459C469.836 591.84 469.679 591.021 469.185 590.756C468.692 590.491 468.041 591.044 467.458 591.22L468.669 593.564L470.172 592.459Z" fill="white"/>
<path d="M454.135 580.439C450.596 589.566 445.324 597.88 438.63 604.903C448.117 605.637 457.246 609.492 466.867 613.325C454.046 622.665 441.069 623.399 427.689 616.675C422.252 613.921 419.567 610.02 422.789 603.158C429.233 589.389 438.921 580.944 454.315 580.577L454.135 580.439Z" fill="white"/>
<path d="M252.688 580.69C268.804 581.398 277.713 591.578 284.317 605.204C285.125 607.029 285.212 609.102 284.563 610.994C283.912 612.884 282.575 614.447 280.825 615.36C267.394 622.208 253.449 624.49 239.525 613.512C248.479 609.586 257.097 606.094 266.387 605.112C261.552 597.101 253.986 590.596 252.755 580.439L252.688 580.69Z" fill="white"/>
<path d="M127.818 203.094C123.583 203.204 122.784 200.902 122.54 197.087C121.542 180.707 122.54 177.769 138.064 161.653V188.908L164.144 183.865C156.781 199.718 143.808 208.159 128.417 207.019C125.069 206.778 127.774 204.322 127.508 202.941L129.726 199.915C129.171 199.915 128.373 199.52 128.129 199.762C127.242 200.704 126.466 201.823 127.818 203.094ZM136.689 192.131H134.937L135.336 193.556L136.467 192.043L137.931 190.794L136.556 190.421L136.689 192.131Z" fill="white"/>
<path d="M120.981 492.016C121.757 495.621 117.497 496.846 116.987 499.984C122.268 502.477 127.881 503.991 132.23 507.864L132.008 507.641C132.141 509.155 132.408 510.513 134.471 510.067L134.271 509.823C134.056 510.286 133.95 510.791 133.956 511.301C133.963 511.812 134.087 512.313 134.316 512.77C134.544 513.226 134.873 513.624 135.277 513.934C135.678 514.245 136.146 514.461 136.646 514.564L136.446 514.319C136.579 515.81 136.867 517.168 138.887 516.723L138.687 516.478C138.687 520.062 141.017 524.357 133.317 522.599C119.672 519.438 110.02 512.494 105.227 499.161C105.649 498.76 106.048 498.359 106.448 497.936C109.332 497.936 112.15 499.828 117.209 497.157C102.875 490.636 90.5831 483.023 88.7637 465.572C97.7831 469.145 106.421 473.619 114.546 478.927L114.347 478.705C113.992 480.931 113.659 483.001 116.721 483.401L116.565 483.134C116.137 484.381 116.124 485.732 116.523 486.987C116.923 488.243 117.717 489.336 118.784 490.101L118.629 489.856C118.917 491.214 118.917 492.839 121.092 492.26L120.981 492.016Z" fill="white"/>
<path d="M576.212 503.573C583.769 502.928 590.376 497.548 598.486 498.77C592.652 514.623 582.288 522.627 567.373 523.005C564.323 523.005 565.163 521.026 565.34 519.27L566.268 516.669L563.506 517.091C559.838 513.867 557.473 498.637 560.147 493.279C561.904 490.059 563.906 486.982 566.135 484.074C567.77 481.85 568.522 478.671 572.764 477.537C573.538 485.919 574.311 494.079 574.974 502.261C571.593 503.239 570.93 505.574 571.77 508.776C572.848 508.295 573.805 507.579 574.574 506.679C575.343 505.779 575.902 504.718 576.212 503.573Z" fill="white"/>
<path d="M552.437 534.34C560.512 527.682 570.623 528.339 580.537 525.509C573.599 543.623 559.746 548.514 543.333 549.33C542.588 545.231 547.71 543.895 547.578 539.865C542.807 537.215 543.201 544.257 539.809 544.62C536.57 528.384 539.809 514.64 554.122 503.861C555.325 514.114 554.785 524.505 552.524 534.566H550.773L551.299 535.97L552.437 534.34Z" fill="white"/>
<path d="M469.26 112.596C487.735 113.47 502.345 119.232 509.942 135.148C492.5 136.396 483.262 131.466 469.26 112.596Z" fill="white"/>
<path d="M189.271 137.354C190.688 136.908 191.991 136.183 193.096 135.228C194.199 134.273 195.082 133.108 195.683 131.81C203.597 118.675 216.6 115.007 231.15 113.792C228.2 121.735 222.404 128.436 214.782 132.725C207.157 137.013 198.19 138.614 189.451 137.247L189.271 137.354Z" fill="white"/>
<path d="M605.058 323.185C617.393 334.129 625.617 345.836 621.217 363.867C608.286 354.246 602.509 341.395 605.058 323.185Z" fill="white"/>
<path d="M605.893 357.885C618.711 368.362 624.602 380.73 619.24 397.37C606.445 386.086 599.012 374.164 605.893 357.885Z" fill="white"/>
<path d="M532.131 150.328C532.421 152.581 534.068 154.542 529.705 155.511C514.68 158.779 501.57 156.616 490.797 143.769C500.212 140.614 509.672 141.38 519.065 141.515L518.798 141.312C518.553 143.183 519.8 143.566 521.224 143.792L520.98 143.611C521.313 144.547 521.99 145.315 522.867 145.759C523.746 146.205 524.759 146.291 525.698 146L525.476 145.798C525.231 147.668 526.455 148.051 527.88 148.299L527.657 148.096C527.996 149.029 528.672 149.796 529.547 150.244C530.424 150.69 531.434 150.785 532.376 150.508L532.131 150.328Z" fill="white"/>
<path d="M83.2341 320.771C86.3598 308.645 96.8253 302.735 106.388 295.665C108.194 306.872 101.989 315.78 99.187 325.455V325.345C91.5926 321.865 90.2728 332.087 83.7203 331.54C81.4049 328.038 84.2297 324.163 83.2109 320.596L83.2341 320.771Z" fill="white"/>
<path d="M161.317 164.239H188.075C179.634 179.234 164.784 180.733 149.295 180.797C145.987 180.797 148.018 178.355 147.926 176.92L147.698 177.134C148.357 177.117 148.982 176.862 149.446 176.425C149.909 175.986 150.173 175.395 150.185 174.778L149.957 174.992C150.294 175.026 150.636 174.988 150.958 174.881C151.277 174.776 151.569 174.602 151.811 174.377C152.051 174.15 152.235 173.876 152.347 173.576C152.461 173.274 152.502 172.953 152.466 172.636L152.238 172.85C154.929 172.379 156.8 171.201 157.005 168.352L156.777 168.566C158.534 168.566 159.515 167.987 159.286 166.209L159.058 166.402C160.929 166.595 161.955 165.995 161.545 164.046L161.317 164.239Z" fill="white"/>
<path d="M97.6782 261.25C95.097 264.731 93.266 266.819 91.2804 260.419C86.8682 246.519 87.7507 233.786 98.0091 221.479C101.142 230.026 103.189 238.948 104.098 248.023L104.319 247.799C102.112 248.652 101.958 250.561 101.936 252.537L102.09 252.267C100.972 252.997 100.14 254.1 99.7365 255.389C99.335 256.676 99.3857 258.066 99.8843 259.319L100.039 259.072C97.8326 258.488 97.8326 260.127 97.612 261.475L97.6782 261.25Z" fill="white"/>
<path d="M515.988 564.699C514.299 564.987 511.87 568.205 511.361 563.7C509.695 548.52 517.423 536.092 533.873 527.792C532.438 536.669 531.073 545.28 529.685 553.869L529.916 553.669C528.251 553.669 527.302 554.423 527.371 556.11L527.603 555.888C525.867 555.888 524.873 556.532 525.081 558.329L525.312 558.107C523.484 558.107 522.443 558.64 522.767 560.549L522.998 560.349C521.055 560.105 519.968 560.682 520.477 562.79L520.708 562.59C518.117 561.481 517.006 563.301 515.803 564.81L515.988 564.699Z" fill="white"/>
<path d="M556.288 174.94C556.89 177.684 557.046 179.402 552.99 179.558C537.879 180.049 524.885 176.48 515.926 161.957C525.037 161.18 534.213 161.896 543.094 164.076L542.894 163.853C544.03 165.571 544.966 167.645 547.641 166.084L547.418 165.905C546.838 168.136 547.886 168.694 549.87 168.337L549.647 168.136C549.134 170.256 550.204 170.836 552.076 170.59L551.853 170.367C551.519 172.33 552.522 172.955 554.282 172.821L554.06 172.598C553.881 174.427 554.84 175.097 556.511 175.052L556.288 174.94Z" fill="white"/>
<path d="M110.551 232.013C109.095 232.013 107.276 235.641 106.205 231.349C102.505 216.457 103.536 202.85 115.766 190.37L118.495 219.135L118.677 218.869C116.655 218.205 116.655 219.821 116.433 221.259L116.615 221.016C116.186 221.162 115.79 221.398 115.449 221.715C115.105 222.031 114.826 222.421 114.624 222.859C114.422 223.297 114.302 223.775 114.274 224.264C114.244 224.753 114.304 225.244 114.452 225.706L114.614 225.463C112.228 226.105 111.622 227.676 112.471 230.154L112.633 229.91C110.611 229.247 110.611 230.84 110.389 232.3L110.551 232.013Z" fill="white"/>
<path d="M115.307 478.845C114.188 469.243 117.565 460.468 119.887 451.214C131.393 463.473 131.113 477.06 126.339 491.583C124.189 497.811 123.156 491.3 121.629 491.583L121.823 491.844C121.543 490.538 121.522 488.927 119.436 489.493L119.586 489.732C120.062 488.519 120.107 487.178 119.715 485.935C119.322 484.692 118.518 483.627 117.436 482.917L117.586 483.178C117.586 481.262 117.285 479.477 115.285 478.584L115.307 478.845Z" fill="white"/>
<path d="M132.071 507.923V477.537C148.187 490.175 149.793 505.071 145.066 521.77C141.573 522.295 141.852 517.344 138.848 516.751L139.057 517.002C138.848 515.565 138.382 514.333 136.496 514.538L136.705 514.789C136.961 513.82 136.85 512.796 136.391 511.901C135.932 511.007 135.159 510.307 134.213 509.93L134.423 510.181C134.167 508.744 133.654 507.581 131.838 507.695L132.071 507.923Z" fill="white"/>
<path d="M590.797 224.944C589.413 227.986 592.994 229.993 592.445 233.445C576.294 231.136 564.032 224.253 559 207.121C567.95 208.802 576.529 212.023 584.337 216.636L584.161 216.421C584.424 217.758 584.798 218.967 586.6 218.751L586.402 218.535C586.097 219.448 586.174 220.443 586.613 221.299C587.055 222.158 587.824 222.81 588.753 223.109L588.556 222.872C588.731 224.275 588.951 225.656 590.995 225.202L590.797 224.944Z" fill="white"/>
<path d="M119.319 219.547C126.807 213.686 136.185 212.361 145 208.318C139.648 225.835 131.125 233.47 114.731 236.838C110.346 237.759 110.751 235.289 110.481 232.751L110.301 232.976C112.145 233.223 112.55 231.92 112.797 230.55L112.617 230.797C113.456 230.346 114.137 229.645 114.562 228.794C114.99 227.941 115.143 226.98 115.001 226.037L114.821 226.284C117.182 225.498 117.609 223.701 117.227 221.523L117.025 221.77C118.914 222.039 119.274 220.737 119.521 219.345L119.319 219.547Z" fill="white"/>
<path d="M103.498 248.587C111.571 245.267 118.487 239.173 127.052 237.217L126.923 237.035C125.553 254.09 114.825 262.162 101.228 267.506C93.9696 270.326 99.6011 262.958 97.2886 261.98L97.1387 262.208C99.2799 262.867 99.2799 261.139 99.4941 259.775L99.3442 260.025C100.372 259.231 101.132 258.112 101.518 256.828C101.903 255.543 101.892 254.162 101.485 252.885L101.336 253.157C104.248 252.725 103.884 250.497 103.648 248.359L103.498 248.587Z" fill="white"/>
<path d="M518.378 141.05C513.289 133.631 511.826 124.972 508.746 116.185C525.542 121.38 534.432 132.22 535.065 147.357C535.196 150.372 532.641 148.982 531.199 149.495L531.439 149.687C531.33 149.215 531.114 148.77 530.81 148.388C530.504 148.005 530.118 147.695 529.675 147.475C529.231 147.257 528.746 147.137 528.25 147.124C527.755 147.111 527.263 147.205 526.809 147.4L527.027 147.592C527.442 145.647 526.132 145.454 524.668 145.219L524.887 145.411C524.775 144.941 524.557 144.498 524.251 144.118C523.946 143.739 523.557 143.429 523.115 143.214C522.672 142.998 522.187 142.88 521.694 142.867C521.2 142.854 520.709 142.951 520.256 143.145L520.497 143.316C520.89 141.371 519.579 141.178 518.116 140.964L518.378 141.05Z" fill="white"/>
<path d="M584.692 491.511C583.328 490.854 581.272 493.373 580.363 490.438C575.709 475.697 574.238 461.415 586.293 448.82C589.064 458.633 592.267 468.249 591.034 478.654L591.228 478.369C588.263 478.785 588.631 480.932 588.891 482.991L589.064 482.75C586.185 483.21 586.531 485.334 586.726 487.372L586.899 487.109C584.107 487.613 584.41 489.715 584.562 491.73L584.692 491.511Z" fill="white"/>
<path d="M234.605 591.671C229.164 584.216 226.498 575.596 222.775 566.081C238.548 569.462 245.928 578.91 250.664 592.298C253.417 600.067 248.703 597.761 245.333 598.186L245.619 598.387C245.135 595.387 243.24 595.298 240.949 595.992L241.191 596.171C241.764 593.932 240.178 593.932 238.812 593.686L239.033 593.865C238.173 591.626 236.389 591.357 234.385 591.469L234.605 591.671Z" fill="white"/>
<path d="M590.73 478.349C596.935 469.369 607.335 467.775 616.433 461.982C614.115 480.684 602.301 488.564 587.881 493.997C585.408 494.94 584.745 493.458 584.281 491.528L584.127 491.752C586.6 491.056 586.534 489.036 586.512 487.015L586.335 487.284C588.676 486.499 588.72 484.523 588.72 482.547L588.543 482.794C590.752 481.964 590.906 480.033 590.928 478.057L590.73 478.349Z" fill="white"/>
<path d="M245.119 597.946C247.345 600.824 250.684 602.988 243.716 604.952C229.489 608.945 217.289 606.491 206.023 596.027C215.178 593.165 224.689 591.612 234.276 591.409L234.053 591.208C234.61 594.019 236.592 593.975 238.751 593.595L238.528 593.417C238.128 595.402 239.575 595.648 240.933 595.893L240.688 595.715C241.171 596.518 241.87 597.167 242.705 597.591C243.54 598.013 244.477 598.189 245.408 598.102L245.119 597.946Z" fill="white"/>
<path d="M82.0711 254.982C90.5458 268.967 93.4069 283.356 84.542 298.058C73.4881 284.118 72.7078 271.881 82.0711 254.982Z" fill="white"/>
<path d="M161.1 543.261C160.966 545.575 167.021 550.203 157.905 549.185C142.644 547.241 131.54 540.485 124.658 525.398C135.226 527.134 145.571 528.198 154.687 534.191L154.441 533.96C154.441 535.765 154.777 537.014 156.899 536.505L156.72 536.25C155.67 538.819 157.234 540.068 158.955 541.179L158.776 540.948C159.603 541.781 160.429 542.614 161.234 543.47L161.1 543.261Z" fill="white"/>
<path d="M543.289 163.507C541.781 154.274 540.252 145.041 538.658 135.329C554.231 143.969 561.339 156.622 560.047 172.58C559.81 175.613 557.505 174.245 556.04 174.609L556.256 174.815C556.29 174.477 556.251 174.135 556.144 173.814C556.038 173.495 555.864 173.203 555.638 172.961C555.409 172.722 555.136 172.537 554.832 172.425C554.528 172.311 554.205 172.27 553.886 172.307L554.102 172.535C554.104 172.207 554.046 171.881 553.93 171.577C553.813 171.274 553.641 170.996 553.421 170.763C553.204 170.531 552.943 170.344 552.657 170.219C552.372 170.093 552.064 170.027 551.754 170.027L551.969 170.255L549.622 167.747L549.837 167.953L547.468 165.468L547.683 165.65C546.563 163.986 545.529 162.162 543.095 163.37L543.289 163.507Z" fill="white"/>
<path d="M105.416 419.041C117.07 432.192 121.173 442.173 108.539 465.572C102.013 454.408 97.4447 443.669 103.715 430.964C105.439 427.503 108.866 423.44 105.509 418.907L105.416 419.041Z" fill="white"/>
<path d="M614.111 432.069C613.121 413.799 622.718 402.841 637.86 394.977C639.103 412.628 629.875 423.851 614.111 432.069Z" fill="white"/>
<path d="M622.644 252.59C632.294 272.866 632.021 278.273 621.05 295.665C611.4 280.098 611.513 275.547 622.644 252.59Z" fill="white"/>
<path d="M529.301 554.234L556.608 552.919C547.691 566.293 536.1 571.754 520.83 570.751C516.372 570.439 516.661 567.831 516.104 565.134L515.926 565.334C518.601 566.828 519.515 564.71 520.652 563.105L520.429 563.306L522.858 560.854L522.635 561.055C523.282 561.044 523.899 560.781 524.356 560.324C524.813 559.867 525.076 559.249 525.088 558.603L524.865 558.826C525.195 558.857 525.524 558.815 525.837 558.703C526.146 558.589 526.427 558.411 526.661 558.175C526.893 557.941 527.072 557.658 527.181 557.346C527.29 557.034 527.328 556.702 527.294 556.374L527.072 556.597C528.654 556.597 529.591 555.839 529.524 554.145L529.301 554.234Z" fill="white"/>
<path d="M584.312 217.014C585.26 207.946 586.208 198.696 587.179 189.174C603.108 203.253 603.246 210.417 597.166 232.249C594.854 229.982 593.028 227.851 591.109 225.788L591.317 226.06C591.063 224.631 590.739 223.294 588.751 223.611L588.959 223.861C589.398 221.594 588.959 219.848 586.485 219.054L586.693 219.281C586.508 217.807 586.462 216.152 584.127 216.833L584.312 217.014Z" fill="white"/>
<path d="M104.318 465.572C86.9869 460.692 77.9524 450.083 75.6016 433.266C90.6744 439.692 104.019 446.685 104.318 465.572Z" fill="white"/>
<path d="M623.724 397.37C619.315 380.165 626.48 368.745 638.818 359.081C643.906 375.918 635.808 387.012 623.724 397.37Z" fill="white"/>
<path d="M609.702 432.07C598.923 418.278 594.342 404.026 603.071 387.798C614.032 400.969 617.77 415.29 609.702 432.07Z" fill="white"/>
<path d="M114.907 265.751C115.627 283.099 105.323 292.735 90.6086 299.254L88.7637 297.906C90.4736 281.641 99.8106 271.386 115.087 265.972L114.907 265.751Z" fill="white"/>
<path d="M629.243 331.46C634.153 330.506 634.174 323.874 638.646 321.988C643.181 338.713 638.646 352.111 626.108 363.867C624.018 352.199 624.018 341.508 629.347 331.282L629.243 331.46Z" fill="white"/>
<path d="M154.524 533.811C149.428 525.145 151.39 515.699 151.198 506.254C166.152 513.815 173.76 529.824 168.425 542.585C166.224 547.936 163.879 540.418 161.391 542.303L161.63 542.498C161.774 540.786 161.319 539.617 158.998 540.136L159.19 540.353C160.41 537.905 158.639 536.8 156.797 535.739L156.988 535.977L154.357 533.594L154.524 533.811Z" fill="white"/>
<path d="M615.237 296.861C595.377 286.574 593.65 284.319 590.109 264.555C605.803 269.107 611.955 276.812 615.237 296.861Z" fill="white"/>
<path d="M83.9768 320.042C79.874 322.433 80.7906 327.235 78.8265 331.56C69.5954 318.521 64.1396 305.633 72.6943 289.682C80.0683 298.164 84.0248 309.065 83.8022 320.281L83.9768 320.042Z" fill="white"/>
<path d="M350.803 622.462C360.382 629.954 368.248 616.775 378.323 620.657C373.815 622.756 367.459 621.706 367.549 629.051C367.549 633.08 362.591 632.241 359.683 630.1C356.776 627.96 353.755 625.127 350.803 622.462Z" fill="white"/>
<path d="M337.641 661.173C336.415 662.227 334.997 662.848 333.527 662.975C332.06 663.103 330.588 662.73 329.266 661.895C331.142 658.11 334.09 660.219 336.435 659.41L337.641 661.173Z" fill="white"/>
<path d="M385.503 623.292L380.717 622.433C380.909 622.044 381.047 621.351 381.322 621.295C381.724 621.151 382.147 621.096 382.571 621.132C382.994 621.171 383.407 621.298 383.775 621.506C384.147 621.717 384.469 622.005 384.719 622.352C384.969 622.699 385.143 623.095 385.228 623.514L385.503 623.292Z" fill="white"/>
<path d="M105.568 499.075C105.132 498.815 104.259 498.347 104.322 498.295C105.111 497.592 105.943 497.891 106.711 498.373L105.568 499.075Z" fill="white"/>
<path d="M391.032 653.428C391.271 653.728 391.42 654.037 391.485 654.351C391.485 654.455 390.806 654.637 390.45 654.624C389.949 654.565 389.483 654.464 389.092 654.325L391.032 653.428Z" fill="white"/>
<path d="M388.632 654.624C389.81 655.901 388.439 656.354 387.718 657.017C387.397 656.694 387.056 656.386 386.699 656.095L388.632 654.624Z" fill="white"/>
<path d="M321.232 655.82L323.283 657.92C322.799 658.392 322.339 658.889 321.909 659.41L319.693 657.752C320.186 657.143 320.719 656.492 321.232 655.82Z" fill="white"/>
<path d="M384.307 657.437L386.812 655.82C387.191 656.208 387.554 656.618 387.896 657.049L385.167 658.213L384.307 657.437Z" fill="white"/>
<path d="M323.658 657.018L325.676 658.738C324.385 659.965 323.329 659.276 322.086 658.545C322.579 658.011 323.104 657.502 323.658 657.018Z" fill="white"/>
<path d="M91.1567 299.838L89.2598 301.647C89.0847 300.451 88.9388 299.254 88.7637 298.058L91.1567 299.838Z" fill="white"/>
<path d="M252.689 581.171L251.492 580.55C251.695 580.55 251.989 580.302 252.079 580.55C252.253 580.888 252.398 581.251 252.508 581.636L252.689 581.171Z" fill="white"/>
<path d="M385.502 622.564L386.698 623.699L385.89 624.711L385.657 622.318L385.502 622.564Z" fill="white"/>
<path d="M125.856 350.636C126.124 226.174 228.147 125.535 353.836 125.757C478.989 125.957 579.763 227.439 579.34 352.81C578.916 476.585 476.424 577.446 351.65 576.847C226.876 576.248 125.566 474.588 125.856 350.636ZM353.077 562.34C409.358 562.315 463.329 540.094 503.155 500.546C542.978 461 565.403 407.358 565.511 351.391C565.511 234.781 469.599 139.288 352.431 139.599C296.157 139.752 242.242 162.078 202.49 201.688C162.74 241.298 140.397 294.962 140.354 350.925C140.263 378.725 145.703 406.268 156.363 431.968C167.022 457.668 182.692 481.017 202.465 500.668C222.236 520.319 245.726 535.886 271.575 546.471C297.424 557.054 325.123 562.448 353.077 562.34Z" fill="#262423"/>
<path d="M376.225 646.249C376.118 645.052 376.024 643.856 375.93 642.659L377.126 644.114L376.225 646.249Z" fill="#262423"/>
<path d="M302.941 65.9307C307.2 69.1179 311.283 72.517 315.168 76.115C317.568 78.58 318.632 82.0829 314.602 84.2668C313.873 84.6993 313.051 84.9674 312.195 85.0496C311.341 85.1296 310.479 85.0214 309.675 84.7339C308.874 84.4441 308.149 83.9836 307.563 83.3846C306.976 82.7878 306.541 82.0678 306.292 81.2829C304.639 77.0448 304.323 72.3743 302.941 65.9307Z" fill="#262423"/>
<path d="M400.896 67.127C400.896 74.3369 402.634 80.5929 394.73 83.4325C391.842 84.4751 388.245 83.7208 387.951 80.8369C387.217 73.272 393.971 70.8317 400.896 67.127Z" fill="#262423"/>
<path d="M340.034 86.7725C333.211 85.9148 332.705 91.159 332.937 97.0403C332.256 96.8344 331.62 96.4595 331.075 95.9424C330.529 95.4253 330.085 94.7784 329.773 94.0432C329.462 93.3081 329.289 92.5043 329.268 91.6858C329.247 90.8673 329.377 90.0513 329.651 89.2965C331.778 84.7385 336.18 86.65 340.034 86.7725Z" fill="#262423"/>
<path d="M325.676 91.2698C325.057 91.626 324.465 92.2544 323.9 92.2544C322.474 92.2544 321.694 91.4793 322.285 90.4319C322.555 90.2141 322.891 90.0486 323.262 89.9543C323.631 89.86 324.026 89.837 324.411 89.8873C324.922 89.992 325.245 90.7461 325.676 91.2698Z" fill="#262423"/>
<path d="M156.965 167.636C156.862 170.667 155.402 171.92 153.375 172.422C153.478 169.368 154.938 168.137 156.965 167.636Z" fill="#262423"/>
<path d="M149.786 174.826C149.775 175.136 149.526 175.434 149.091 175.655C148.655 175.876 148.066 176.003 147.448 176.012C147.148 175.074 148.091 174.75 149.786 174.826Z" fill="#262423"/>
<path d="M153.356 172.426C153.408 172.746 153.35 173.07 153.193 173.375C153.032 173.679 152.772 173.954 152.435 174.183C152.094 174.409 151.686 174.584 151.233 174.692C150.78 174.798 150.298 174.837 149.823 174.803C149.534 173.031 150.915 172.361 153.356 172.426Z" fill="#262423"/>
<path d="M159.327 165.255C159.541 167.049 158.622 167.697 156.977 167.632C156.943 167.312 156.981 166.986 157.088 166.683C157.193 166.379 157.366 166.104 157.59 165.875C157.817 165.649 158.09 165.474 158.389 165.366C158.691 165.26 159.011 165.221 159.327 165.255Z" fill="#262423"/>
<path d="M161.627 164.046C162.199 165.022 160.768 165.322 158.162 165.225C158.178 164.915 158.547 164.621 159.192 164.401C159.837 164.181 160.711 164.053 161.627 164.046Z" fill="#262423"/>
<path d="M179.699 556.675L180.896 557.478L179.752 557.705L179.84 556.509L179.699 556.675Z" fill="#262423"/>
<path d="M179.698 556.307L178.502 556.435L178.744 555.312L179.577 556.509L179.698 556.307Z" fill="#262423"/>
<path d="M606.861 445.512L606.031 446.428C605.822 445.972 605.698 445.469 605.664 444.951C605.664 444.615 606.175 444.334 606.446 444.035C606.589 444.521 606.717 445.026 606.861 445.512Z" fill="#262423"/>
<path d="M470.458 592.674L469.132 593.601L468.064 591.637C468.579 591.488 469.271 591.081 469.587 591.247C469.904 591.414 470.161 592.155 470.458 592.674Z" fill="#262423"/>
<path d="M128.01 203.532C126.226 202.203 127.25 201.034 128.536 200.049C128.858 199.797 129.911 200.049 130.642 200.21L127.718 203.372L128.01 203.532Z" fill="#262423"/>
<path d="M137.366 191.566L135.048 192.763L134.23 191.636H137.82L137.366 191.566Z" fill="#262423"/>
<path d="M138.002 191.567L137.893 190.37L139.017 190.621L137.82 191.463L138.002 191.567Z" fill="#262423"/>
<path d="M116.551 483.521C117.455 484.268 118.129 485.39 118.456 486.699C118.783 488.009 118.745 489.422 118.348 490.7C117.484 489.908 116.841 488.784 116.517 487.491C116.194 486.197 116.206 484.805 116.551 483.521Z" fill="#262423"/>
<path d="M134.632 509.844C135.78 510.215 136.718 510.904 137.275 511.785C137.832 512.666 137.968 513.675 137.657 514.63C137.021 514.524 136.424 514.309 135.91 513.994C135.398 513.682 134.977 513.279 134.689 512.819C134.398 512.358 134.239 511.85 134.231 511.336C134.222 510.821 134.358 510.311 134.632 509.844Z" fill="#262423"/>
<path d="M115.189 477.537C116.139 478.7 116.211 481.025 116.282 483.52C114.872 483.009 115.025 480.259 115.189 477.537Z" fill="#262423"/>
<path d="M118.676 489.611C121.91 489.087 121.91 490.578 122.265 491.787C119.096 492.311 119.096 490.84 118.676 489.611Z" fill="#262423"/>
<path d="M131.838 507.451C133.52 507.451 133.994 508.427 134.231 509.762C132.226 510.187 131.967 508.893 131.838 507.451Z" fill="#262423"/>
<path d="M137.82 514.651C138.701 514.46 138.908 515.607 139.017 516.945C138.027 517.369 137.886 515.989 137.82 514.651Z" fill="#262423"/>
<path d="M575.752 502.913C575.52 504.173 575.099 505.339 574.521 506.331C573.944 507.324 573.223 508.115 572.411 508.647C571.776 505.119 572.277 502.546 574.833 501.468L575.752 502.913Z" fill="#262423"/>
<path d="M563.785 517.412L566.178 517.023L565.374 519.417C564.857 518.742 564.321 518.087 563.785 517.412Z" fill="#262423"/>
<path d="M551.611 533.774L550.146 534.971L549.428 533.968H551.821L551.611 533.774Z" fill="#262423"/>
<path d="M519.514 142.879C520.098 142.621 520.733 142.496 521.371 142.51C522.008 142.527 522.635 142.683 523.208 142.969C523.778 143.256 524.28 143.667 524.675 144.172C525.07 144.674 525.352 145.261 525.496 145.885C524.305 146.251 523.021 146.143 521.907 145.584C520.795 145.023 519.937 144.056 519.514 142.879Z" fill="#262423"/>
<path d="M526.693 147.539C527.163 147.368 527.671 147.285 528.183 147.296C528.696 147.307 529.197 147.415 529.655 147.607C530.114 147.8 530.513 148.075 530.829 148.413C531.143 148.748 531.367 149.141 531.479 149.557C530.525 149.789 529.5 149.71 528.61 149.337C527.723 148.961 527.037 148.32 526.693 147.539Z" fill="#262423"/>
<path d="M525.513 146.099C526.223 146.25 526.858 146.53 526.657 148.492C525.979 148.276 525.396 147.888 525.513 146.099Z" fill="#262423"/>
<path d="M518.362 141.312C520.479 141.443 522.374 141.726 521.806 143.706C519.784 143.51 518.015 143.118 518.362 141.312Z" fill="#262423"/>
<path d="M101.532 252.59C102.043 253.875 102.056 255.263 101.572 256.554C101.088 257.846 100.133 258.973 98.8425 259.769C98.2347 258.493 98.1729 257.078 98.6623 255.768C99.1545 254.456 100.168 253.333 101.532 252.59Z" fill="#262423"/>
<path d="M104.093 247.804C104.436 249.936 104.965 252.159 100.729 252.59C100.76 250.594 101.009 248.666 104.093 247.804Z" fill="#262423"/>
<path d="M99.5317 259.878C99.2489 261.086 99.2924 262.618 97.1387 262.033C97.4215 260.824 97.4215 259.354 99.5317 259.878Z" fill="#262423"/>
<path d="M521.908 562.885C520.469 564.828 519.312 567.256 515.926 565.441C517.393 563.703 518.748 561.607 521.908 562.885Z" fill="#262423"/>
<path d="M526.689 556.511C526.705 556.829 526.687 557.152 526.634 557.455C526.581 557.758 526.494 558.033 526.382 558.26C526.268 558.49 526.132 558.663 525.982 558.773C525.831 558.881 525.671 558.922 525.511 558.892C525.414 557.139 525.878 556.467 526.689 556.511Z" fill="#262423"/>
<path d="M525.497 557.717C525.486 558.345 525.235 558.944 524.799 559.388C524.363 559.832 523.774 560.087 523.157 560.098C522.86 558.236 523.817 557.609 525.497 557.717Z" fill="#262423"/>
<path d="M530.283 552.919C530.283 555.399 529.012 556.443 526.698 556.509C526.601 554.028 527.937 552.984 530.283 552.919Z" fill="#262423"/>
<path d="M523.103 560.174L519.683 563.688C518.993 560.653 520.468 559.822 523.103 560.174Z" fill="#262423"/>
<path d="M542.248 164.304C545.394 163.466 546.77 164.835 548.231 166.016C544.86 167.214 543.681 165.622 542.248 164.304Z" fill="#262423"/>
<path d="M554.235 172.434C554.553 172.4 554.875 172.438 555.177 172.547C555.48 172.653 555.752 172.828 555.98 173.055C556.205 173.284 556.379 173.559 556.484 173.864C556.591 174.169 556.63 174.493 556.596 174.813C554.986 174.856 554.064 174.207 554.235 172.434Z" fill="#262423"/>
<path d="M550.717 170.029C551.179 170.029 551.638 170.09 552.065 170.211C552.488 170.33 552.876 170.505 553.201 170.727C553.528 170.947 553.785 171.209 553.958 171.498C554.131 171.786 554.218 172.094 554.215 172.406C551.68 172.535 550.236 171.93 550.717 170.029Z" fill="#262423"/>
<path d="M549.548 167.636L551.821 171.15C550.069 171.501 549.068 170.671 549.548 167.636Z" fill="#262423"/>
<path d="M547.209 165.243L549.428 167.544C547.633 167.882 546.604 167.333 547.209 165.243Z" fill="#262423"/>
<path d="M117.367 221.479C117.701 223.173 117.367 224.476 115.267 225.069C115.124 224.715 115.065 224.339 115.093 223.965C115.122 223.591 115.238 223.225 115.434 222.89C115.63 222.555 115.901 222.257 116.233 222.015C116.566 221.772 116.951 221.59 117.367 221.479Z" fill="#262423"/>
<path d="M115.043 225.069C115.163 226.018 115.034 226.984 114.674 227.842C114.315 228.697 113.741 229.402 113.034 229.855C112.238 227.372 112.807 225.724 115.043 225.069Z" fill="#262423"/>
<path d="M112.694 230.002C112.414 231.255 112.069 232.447 110.301 232.221C110.473 230.824 110.495 229.386 112.694 230.002Z" fill="#262423"/>
<path d="M118.676 219.235C118.418 220.505 118.094 221.693 116.283 221.447C116.456 220.034 116.499 218.62 118.676 219.235Z" fill="#262423"/>
<path d="M587.882 219.087C589.965 219.877 590.358 221.638 589.984 223.873C589.153 223.559 588.465 222.877 588.07 221.979C587.677 221.083 587.608 220.042 587.882 219.087Z" fill="#262423"/>
<path d="M588.914 222.72C590.768 222.427 591.07 223.664 591.307 224.985C589.302 225.425 589.087 224.083 588.914 222.72Z" fill="#262423"/>
<path d="M584.127 216.836C587.361 216.218 587.361 217.723 587.717 219.062C585.065 219.269 584.515 218.114 584.127 216.836Z" fill="#262423"/>
<path d="M587.717 487.109C587.717 489.151 587.717 491.192 584.263 491.896C584.039 489.809 583.591 487.631 587.717 487.109Z" fill="#262423"/>
<path d="M590.11 483.521C590.11 485.018 590.11 486.515 587.846 487.11C587.657 485.528 587.28 483.878 590.11 483.521Z" fill="#262423"/>
<path d="M591.307 477.537C591.307 480.032 591.141 482.471 589.069 483.52C588.82 480.855 588.51 478.076 591.307 477.537Z" fill="#262423"/>
<path d="M239.526 593.431C236.69 593.781 234.252 593.822 233.543 591.225C236.123 591.122 238.42 591.431 239.526 593.431Z" fill="#262423"/>
<path d="M245.509 598.369C244.565 598.443 243.615 598.292 242.768 597.929C241.921 597.565 241.213 597.007 240.723 596.316C243.071 595.683 245.012 595.798 245.509 598.369Z" fill="#262423"/>
<path d="M240.611 597.191C239.358 596.771 238.023 596.48 238.393 593.602C239.666 593.957 241.145 593.99 240.611 597.191Z" fill="#262423"/>
<path d="M157.236 536.168C158.68 537.269 160 538.415 159.019 540.954C157.646 539.92 156.398 538.662 157.236 536.168Z" fill="#262423"/>
<path d="M154.583 533.774L156.965 536.064C154.908 536.522 154.496 535.398 154.583 533.774Z" fill="#262423"/>
<path d="M158.162 541.074C161.393 540.573 161.91 541.7 161.716 543.347C160.553 542.576 159.519 541.825 158.162 541.074Z" fill="#262423"/>
<path d="M353.341 563.686C325.491 563.795 297.895 558.392 272.143 547.786C246.39 537.18 222.988 521.584 203.29 501.893C183.591 482.203 167.98 458.809 157.36 433.059C146.74 407.309 141.32 379.711 141.411 351.856C141.451 295.786 163.713 242.017 203.315 202.329C242.919 162.641 296.633 140.269 352.697 140.116C469.362 139.805 565.071 235.485 564.982 352.323C564.876 408.402 542.534 462.147 502.859 501.773C463.182 541.396 409.412 563.664 353.341 563.686ZM558.871 352.679C558.994 325.646 553.785 298.856 543.545 273.839C533.303 248.822 518.23 226.07 499.188 206.885C480.144 187.703 457.506 172.463 432.569 162.039C407.629 151.615 380.881 146.212 353.852 146.139C326.728 146.008 299.847 151.238 274.751 161.528C249.656 171.818 226.839 186.967 207.615 206.105C188.391 225.241 173.135 247.989 162.729 273.039C152.32 298.091 146.965 324.953 146.967 352.079C146.967 465.561 239.654 558.507 352.719 558.352C407.312 558.37 459.68 536.722 498.33 498.163C536.981 459.603 558.754 407.28 558.871 352.679Z" fill="white"/>
<path d="M557.801 352.336C557.684 406.856 535.99 459.102 497.48 497.604C458.969 536.108 406.792 557.723 352.397 557.705C239.743 557.861 147.37 465.052 147.393 351.737C147.39 324.649 152.726 297.829 163.097 272.814C173.466 247.8 188.666 225.086 207.82 205.976C226.975 186.869 249.707 171.742 274.713 161.467C299.717 151.192 326.501 145.97 353.527 146.101C380.457 146.174 407.108 151.569 431.955 161.978C456.804 172.386 479.359 187.603 498.334 206.758C517.307 225.914 532.325 248.633 542.53 273.612C552.733 298.592 557.923 325.343 557.801 352.336ZM380.827 516.139C376.044 516.006 370.775 511.256 366.501 518.07C375.668 520.999 377.904 525.903 370.686 533.382C367.476 536.711 363.18 540.706 359.616 537.044C354.833 532.206 362.25 532.228 364.243 530.076C366.656 527.457 366.922 524.905 364.398 522.331C363.957 521.725 363.32 521.296 362.593 521.117C361.869 520.939 361.103 521.021 360.435 521.354C352.154 525.793 352.176 525.793 345.379 521.532C343.386 520.267 341.725 521.532 340.729 522.974C337.076 528.078 340.375 530.253 344.781 531.518C345.23 531.571 345.662 531.722 346.05 531.96C346.435 532.197 346.765 532.515 347.015 532.894C347.265 533.271 347.431 533.7 347.5 534.148C347.571 534.596 347.54 535.053 347.416 535.491C346.862 538.553 344.404 538.287 342.257 538.087C334.685 537.31 330.943 528.811 334.53 521.088C335.415 519.179 339.777 518.158 336.434 515.007C334.22 512.788 331.629 513.675 329.238 514.674C324.566 516.627 321.666 521.909 315.466 521.332C313.983 521.199 312.521 524.661 314.027 526.88C316.529 530.586 316.75 526.503 318.145 525.637C321.577 523.418 322.883 525.904 323.016 528.855C323.215 533.693 326.116 534.67 330.123 536.667C342.124 542.637 354.7 540.684 366.546 539.241C372.413 538.531 385.1 540.284 383.506 526.503C383.284 524.639 386.008 524.616 386.805 525.637C388.399 527.701 389.484 531.074 391.565 526.303C392.827 523.396 391.056 521.354 388.222 520.444C385.388 519.534 380.229 522.286 380.694 515.85C381.978 516.871 383.063 516.25 384.081 515.384C384.077 515.227 384.042 515.069 383.977 514.925C383.913 514.781 383.82 514.65 383.705 514.541C383.417 514.39 383.094 514.312 382.768 514.317C382.443 514.319 382.122 514.406 381.836 514.563C381.551 514.721 381.309 514.949 381.134 515.224C380.957 515.5 380.851 515.813 380.827 516.139ZM463.17 229.079C453.649 225.817 446.63 227.681 440.63 231.964C433.633 236.957 427.08 236.402 418.976 234.849C377.993 227.481 339.002 232.807 303.842 256.797C281.524 272.088 270.387 293.792 270.741 320.8C271.162 352.491 297.31 371.111 324.455 359.748C344.382 351.404 362.649 320.889 360.368 299.34C360.125 296.966 360.169 294.147 356.494 293.26C356.316 295.945 356.25 298.475 356.006 301.005C354.014 320.534 346.53 337.467 331.053 349.828C319.983 358.705 306.986 361.235 293.768 354.977C281.391 349.096 280.771 337.223 281.236 325.461C281.386 321.413 281.904 317.387 282.786 313.432C294.521 261.569 366.391 222.155 417.404 239.398C424.821 241.906 422.186 244.702 418.422 248.275C398.894 267.117 386.185 290.308 377.063 315.496C371.793 330.032 367.675 344.968 363.092 359.748C355.121 385.558 345.379 410.613 329.194 432.54C318.676 446.698 306.056 458.416 288.653 463.609C273.154 468.048 258.032 468.469 244.216 458.727C231.396 449.672 228.473 429.632 238.216 419.779C240.983 416.983 244.238 415.207 248.113 416.716C251.589 418.048 249.95 420.977 249.308 423.374C247.404 430.365 249.441 435.491 257.013 436.113C264.586 436.734 267.243 431.341 268.195 425.016C268.733 422.076 268.316 419.04 267.006 416.357C265.693 413.672 263.558 411.479 260.91 410.103C253.781 405.842 246.74 406.929 240.12 411.324C223.78 422.131 223.16 448.385 239.101 461.079C244.958 465.946 251.883 469.348 259.309 471.004C266.736 472.659 274.45 472.519 281.811 470.6C325.85 459.748 353.903 430.653 369.513 389.242C380.406 360.392 389.063 330.543 398.606 301.116C404.152 283.091 413.097 266.298 424.954 251.649C427.633 248.431 430.511 243.57 435.781 246.544C448.756 253.934 460.845 262.279 464.432 278.302C470.631 305.798 450.394 347.631 424.91 359.881C410.673 366.739 398.34 365.363 387.469 355.066C388.731 366.162 396.702 367.338 404.163 367.893C426.305 369.513 444.018 359.371 459.716 345.035C493.193 314.342 490.47 275.927 453.228 250.073C448.291 246.655 443.176 243.415 437.973 240.086C444.637 232.43 453.671 232.696 463.17 229.079ZM341.15 188.622C335.659 185.559 331.563 182.23 332.891 175.595C333.998 169.958 339.024 167.961 342.744 164.499C335.526 168.427 323.37 164.499 322.396 177.814C322.396 178.435 320.581 179.634 320.182 179.434C317.968 178.458 315.068 171.844 313.805 179.545C313.008 184.339 317.437 184.871 321.577 184.383C325.717 183.895 324.699 186.025 322.773 187.779C321.267 189.154 319.208 190.863 323.238 189.998C328.839 188.733 334.596 193.504 341.15 188.622ZM365.306 189.31C368.87 189.865 387.735 185.293 390.126 183.362C391.021 182.723 391.636 181.762 391.846 180.681C392.057 179.598 391.844 178.478 391.255 177.548C391.151 177.206 390.967 176.893 390.719 176.636C390.469 176.38 390.161 176.19 389.823 176.079C389.484 175.968 389.123 175.939 388.771 175.999C388.419 176.056 388.087 176.201 387.801 176.416C383.794 178.236 383.594 178.169 381.801 174.862C378.347 168.626 373.343 165.83 365.66 166.651C375.004 176.039 374.826 180.277 365.306 189.31ZM292.439 520.777C295.583 529.144 303.82 524.683 306.72 530.076C305.215 525.171 311.392 521.554 308.934 515.651C303.953 518.846 299.613 523.196 292.439 520.777ZM393.004 516.671C397.875 520.2 397.433 524.927 400.311 528.101C403.743 524.772 411.382 529.277 412.754 519.823C405.071 526.148 402.392 515.429 393.049 516.671H393.004ZM412.444 182.674C400.244 174.596 398.141 175.506 396.945 188.91C402.237 186.602 406.2 181.742 412.444 182.674ZM292.661 182.896C296.336 183.495 299.547 183.784 302.624 184.561C304.838 185.138 305.303 189.354 308.647 187.867C308.981 187.73 309.278 187.512 309.508 187.235C309.74 186.955 309.9 186.625 309.973 186.269C310.048 185.914 310.035 185.548 309.935 185.2C309.833 184.851 309.65 184.532 309.399 184.272C307.185 182.053 306.676 178.014 302.58 178.036C298.971 178.058 295.273 177.858 292.661 182.896ZM351.113 171.622C352.353 170.846 353.947 170.047 352.885 168.471C352.026 167.448 350.848 166.744 349.541 166.474C348.678 166.252 347.327 166.673 347.77 168.271C348.213 169.869 349.165 171.378 351.113 171.622ZM393.049 188.777L392.296 189.399C392.539 189.621 392.761 190.02 393.004 190.042C393.248 190.064 393.491 189.665 393.735 189.465C393.514 189.221 393.292 188.955 393.049 188.777Z" fill="#262423"/>
<path d="M463.56 229.126C454.045 232.753 444.995 232.486 438.408 240.116C443.62 243.52 448.744 246.791 453.69 250.128C490.997 276.046 493.725 314.644 460.189 345.323C444.53 359.695 426.741 369.795 404.539 368.238C397.064 367.682 389.013 366.525 387.815 355.379C398.705 365.702 411.06 367.081 425.322 360.207C450.851 347.926 471.124 305.99 464.913 278.426C461.32 262.364 449.21 253.954 436.212 246.59C430.933 243.609 428.05 248.481 425.366 251.707C413.488 266.393 404.528 283.227 398.971 301.296C389.412 330.796 380.739 360.652 369.827 389.64C354.301 431.064 326.087 460.319 281.971 471.198C274.596 473.122 266.871 473.262 259.431 471.603C251.992 469.943 245.052 466.532 239.185 461.654C223.215 448.928 223.837 422.61 240.206 411.776C246.86 407.326 253.891 406.281 261.033 410.552C263.686 411.931 265.826 414.129 267.139 416.821C268.452 419.511 268.869 422.554 268.33 425.502C267.376 431.909 264.426 437.271 257.129 436.626C249.832 435.98 247.503 430.864 249.41 423.856C250.054 421.475 251.628 418.539 248.213 417.182C244.331 415.669 241.071 417.449 238.298 420.252C228.539 430.129 231.467 450.219 244.309 459.295C258.149 469.062 273.387 468.706 288.825 464.19C306.258 459.073 318.901 447.326 329.437 433.044C345.695 411.064 355.41 385.947 363.394 360.073C367.986 345.257 372.111 330.284 377.39 315.712C386.528 290.462 399.26 267.214 418.823 248.326C422.593 244.677 425.233 241.874 417.802 239.427C366.788 222.141 294.702 261.674 282.947 313.643C282.064 317.608 281.545 321.643 281.394 325.701C280.928 337.515 281.549 349.395 293.948 355.29C307.256 361.564 320.165 359.072 331.3 350.129C346.826 337.67 354.3 320.696 356.297 301.185C356.541 298.649 356.607 296.113 356.785 293.421C360.467 294.311 360.422 297.136 360.666 299.516C362.884 321.118 344.741 351.708 324.69 360.073C297.43 371.464 271.302 352.798 270.881 321.029C270.526 293.955 281.682 272.197 304.04 256.869C339.174 232.819 378.233 227.48 419.377 234.866C427.495 236.334 434.061 237.091 441.069 231.974C446.992 227.725 454.023 225.856 463.56 229.126Z" fill="white"/>
<path d="M381.159 516.751C380.684 523.009 385.857 520.333 388.838 521.218C391.819 522.103 393.536 524.088 392.249 526.915C390.125 531.555 389.019 528.275 387.393 526.268C386.579 525.275 383.801 525.297 384.027 527.11C385.653 540.512 372.734 538.807 366.726 539.497C354.642 540.9 341.881 542.799 329.572 536.994C325.484 535.052 322.525 534.102 322.322 529.397C322.186 526.527 320.854 524.196 317.353 526.268C315.93 527.11 315.704 531.081 313.152 527.477C311.616 525.318 313.152 521.952 314.62 522.081C320.944 522.578 323.903 517.441 328.668 515.607C331.108 514.636 333.728 513.88 336.009 515.93C339.419 518.995 334.97 519.988 334.066 521.844C330.407 529.354 334.225 537.62 341.949 538.375C344.208 538.569 346.647 538.828 347.212 535.85C347.34 535.427 347.37 534.98 347.297 534.544C347.227 534.108 347.058 533.692 346.803 533.325C346.548 532.958 346.211 532.647 345.818 532.417C345.423 532.186 344.982 532.039 344.524 531.987C340.007 530.757 336.664 528.642 340.391 523.678C341.407 522.319 343.101 521.045 345.134 522.275C352.068 526.592 352.045 526.592 360.492 522.103C361.174 521.781 361.956 521.699 362.694 521.872C363.435 522.047 364.086 522.465 364.535 523.052C367.11 525.556 366.794 528.038 364.377 530.584C362.344 532.742 354.778 532.742 359.657 537.361C363.338 540.922 367.72 537.037 370.95 533.8C378.313 526.527 376.032 521.757 366.681 518.909C371.04 512.283 376.416 516.902 381.294 517.031L381.159 516.751Z" fill="white"/>
<path d="M340.938 188.125C334.369 192.994 328.784 188.236 323.134 189.475C319.149 190.338 321.185 188.634 322.674 187.262C324.58 185.513 325.675 183.367 321.492 183.876C317.309 184.385 313.017 183.876 313.805 179.051C315.054 171.371 317.857 177.967 320.112 178.94C320.594 179.14 322.302 177.944 322.302 177.325C323.266 164.046 335.289 167.985 342.428 164.046C338.749 167.498 333.668 169.49 332.682 175.112C331.456 181.817 335.507 185.071 340.938 188.125Z" fill="white"/>
<path d="M366.357 189.127C375.772 180.139 375.947 175.877 366.708 166.579C374.305 165.762 379.254 168.544 382.669 174.75C384.443 178.041 384.64 178.107 388.603 176.296C388.885 176.082 389.214 175.941 389.562 175.881C389.91 175.824 390.267 175.85 390.602 175.96C390.937 176.071 391.241 176.261 391.488 176.517C391.734 176.771 391.915 177.082 392.018 177.422C392.601 178.348 392.811 179.465 392.603 180.541C392.395 181.616 391.786 182.573 390.902 183.209C388.537 185.13 369.882 189.68 366.357 189.127Z" fill="white"/>
<path d="M292.174 520.929C299.706 523.337 304.263 519.007 309.517 515.826C312.075 521.702 305.588 525.303 307.193 530.185C304.124 524.817 295.522 529.257 292.174 520.929Z" fill="white"/>
<path d="M393.879 517.118C402.979 515.957 405.576 525.968 413.023 520.061C411.671 528.891 404.288 524.683 400.962 527.792C398.171 524.828 398.558 520.414 393.879 517.118Z" fill="white"/>
<path d="M411.826 183.282C405.56 182.401 401.582 186.993 396.271 189.173C397.471 176.51 399.582 175.65 411.826 183.282Z" fill="white"/>
<path d="M293.369 182.989C295.89 178.321 299.458 178.425 302.94 178.404C306.893 178.404 307.363 182.277 309.521 184.287C309.762 184.532 309.94 184.834 310.038 185.162C310.134 185.491 310.147 185.836 310.074 186.171C310.004 186.506 309.85 186.818 309.625 187.08C309.403 187.344 309.117 187.549 308.794 187.679C305.568 189.081 305.12 185.104 302.983 184.559C300.014 183.827 296.916 183.554 293.369 182.989Z" fill="white"/>
<path d="M350.924 171.226C348.834 171.001 347.908 169.717 347.338 168.148C346.768 166.579 348.312 166.294 349.238 166.497C350.639 166.746 351.902 167.392 352.824 168.332C353.964 169.779 352.254 170.512 350.924 171.226Z" fill="white"/>
<path d="M380.904 516.663C380.944 516.294 381.064 515.944 381.252 515.638C381.439 515.334 381.693 515.082 381.986 514.905C382.282 514.731 382.608 514.635 382.943 514.63C383.276 514.625 383.607 514.708 383.908 514.872C384.03 514.999 384.128 515.152 384.196 515.321C384.264 515.49 384.302 515.674 384.306 515.858C383.227 516.871 382.078 517.598 380.717 516.403L380.904 516.663Z" fill="white"/>
<path d="M393.308 189.174L393.878 189.834C393.676 190.02 393.455 190.37 393.271 190.37C393.087 190.37 392.884 189.978 392.682 189.772L393.308 189.174Z" fill="white"/>
<path d="M82.2126 359.081C82.9262 356.329 82.9677 353.47 82.3347 350.705C81.3767 353.424 81.3352 356.34 82.2126 359.081Z" fill="#262423"/>
<path d="M391.201 654.573C391.347 654.196 391.444 653.814 391.485 653.428C391.079 653.428 390.349 653.428 389.092 654.038C389.583 654.31 390.167 654.509 390.795 654.623C390.933 654.629 391.075 654.611 391.201 654.573Z" fill="#262423"/>
<path d="M317.281 626.627C324.488 615.508 338.48 615.286 347.8 624.826C353.338 630.474 356.297 637.746 360.189 644.417C365.595 653.712 372.624 660.117 384.479 657.56L385.503 658.36C374.492 665.832 363.415 664.386 354.829 653.245C349.913 646.863 346.487 639.347 342.238 632.453C339.191 627.517 335.388 623.559 328.893 624.56C326.11 624.898 323.498 626.071 321.396 627.926C319.297 629.778 317.806 632.227 317.125 634.944C315.123 641.437 318.082 646.196 323.977 650.132C321.152 643.283 334.631 643.105 329.137 635.455C329.846 635.048 330.646 634.824 331.462 634.802C332.28 634.78 333.09 634.962 333.819 635.331C334.549 635.698 335.176 636.241 335.644 636.912C336.113 637.581 336.407 638.357 336.5 639.169C336.189 652.511 349.402 653.646 355.029 661.674C349.357 666.366 343.351 653.557 337.545 661.518L336.344 660.161C334.742 647.931 326.957 655.714 321.597 655.714C321.041 656.425 320.462 657.115 319.906 657.805C317.364 652.846 314.161 649.547 310.472 647.351C306.812 644.54 301.663 641.408 295.471 638.042C304.72 637.841 311.716 635.239 317.281 626.627ZM195.853 549.329C213.269 553.176 218.852 566.519 222.033 581.552C222.923 585.799 220.988 589.379 215.872 589.357C209.725 589.357 203.707 589.862 197.785 590.745C190.164 586.671 183.417 582.722 178.067 578.997C177.771 578.524 177.442 578.006 177.078 577.438C177.59 577.082 178.079 576.46 178.657 576.393C186.509 575.37 198.032 578.616 201.19 572.323C203.882 566.942 197.988 557.246 195.853 549.329Z" fill="white"/>
<path d="M376.332 648.509L376.154 648.642C376.134 648.558 376.113 648.474 376.093 648.391C376.172 648.43 376.251 648.47 376.332 648.509ZM374.106 634.347C380.317 630.607 387.461 628.527 394.584 633.373C398.172 635.947 402.491 637.319 406.916 637.29C413.212 637.305 419.508 637.321 425.805 637.337C421.967 639.149 418.298 640.815 414.786 642.346C414.211 642.35 413.635 642.353 413.06 642.357C407.673 642.357 401.929 640.653 397.055 644.791C393.872 647.468 393.672 644.326 392.826 642.578C389.487 635.386 386.148 629.501 381.696 642.092C381.362 643.065 378.425 643.131 376.711 643.618L374.729 642.623C374.997 643.53 375.174 644.26 375.33 645.079C375.578 646.189 375.827 647.299 376.093 648.391C368.98 644.842 367.678 638.22 374.106 634.347ZM508.973 548.133C510.486 551.673 508.06 554.551 507.147 557.538C502.028 574.444 501.939 574.399 519.879 575.506L527.202 575.904C528.611 577.174 527.149 578.665 526 580.108C520.332 583.725 514.845 587.18 509.531 590.483C504.883 589.701 500.172 589.165 495.372 588.961C484.243 588.496 482.017 584.535 485.178 574.444C490.409 557.826 490.409 557.825 508.973 548.133Z" fill="white"/>
</svg>
